<svg width="79" height="248" xmlns="http://www.w3.org/2000/svg" xmlns:svg="http://www.w3.org/2000/svg" class="rocket">
 <defs>
  <linearGradient id="fire-5_3_" x1="0.49769" y1="0.24811" x2="0.4977" y2="0.96379">
   <stop offset="0" stop-color="#F37121"/>
   <stop offset="1" stop-color="#E34E27"/>
  </linearGradient>
  <linearGradient id="fire-5_4_" x1="0.49749" y1="0.24811" x2="0.4975" y2="0.96379">
   <stop offset="0" stop-color="#F37121"/>
   <stop offset="1" stop-color="#E34E27"/>
  </linearGradient>
  <linearGradient id="fire-5_5_" x1="0.49995" y1="0.24788" x2="0.49996" y2="0.96335">
   <stop offset="0" stop-color="#F37121"/>
   <stop offset="1" stop-color="#E34E27"/>
  </linearGradient>
 </defs>
 <g>
  <title>Layer 1</title>
  <g class="fire" id="svg_1">
   <path transform="translate(-1) translate(176, -20) translate(-176, 40)" class="fire-5" fill-rule="evenodd" clip-rule="evenodd" fill="url(#fire-5_3_)" d="m25.9,143.2c6.2,20.8 2.7,34.5 -3.5,48.39999c-5.9,-12.79999 -8.9,-27.2 -4.1,-48.39999c0.9,-3.8 6.5,-3.39999 7.6,0z" id="svg_2"/>
   <path class="fire-4" fill-rule="evenodd" clip-rule="evenodd" fill="#F9A31A" d="m23.7,162.8c4.60001,12.5 1.40001,18.39999 -2.39999,26.8c-0.10001,0.09999 -0.2,0.2 -0.40001,0.2c-0.2,0 -0.39999,-0.10001 -0.39999,-0.2c-3.5,-7.90001 -5.5,-15.10001 -2.3,-26.7c0.8,-2.70001 4.7,-2.3 5.5,-0.10001z" id="svg_3"/>
   <path class="fire-3" fill-rule="evenodd" clip-rule="evenodd" fill="#FAD06D" d="m22.8,162.5c2.59999,6 1.2,10.2 -1.3,14.39999c-0.10001,0.20001 -0.3,0.3 -0.60001,0.3c-0.29999,0 -0.5,-0.09999 -0.59999,-0.3c-2.3,-3.79999 -2.7,-9.29999 -0.8,-14.39999c0.5,-1.39999 2.7,-1.2 3.3,0z" id="svg_4"/>
   <path class="fire-2" fill-rule="evenodd" clip-rule="evenodd" fill="#FAE6B2" d="m22.2,162.5c1.3,3.60001 0.60001,6.10001 -0.59999,9.10001c-0.10001,0.09999 -0.20001,0.2 -0.5,0.2c-0.20001,0 -0.40001,-0.10001 -0.5,-0.2c-1.10001,-2.90001 -1.8,-5.60001 -0.60001,-9.20001c0.39999,-1.09999 1.8,-0.79999 2.2,0.10001z" id="svg_5"/>
   <path class="fire-1" fill-rule="evenodd" clip-rule="evenodd" fill="#FFFFFF" d="m21.7,162.89999c0.60001,1.8 0.3,3.10001 -0.3,4.60001c0,0.09999 -0.09999,0.09999 -0.2,0.09999c-0.09999,0 -0.2,0 -0.2,-0.09999c-0.60001,-1.40001 -0.89999,-2.8 -0.3,-4.60001c0,-0.59999 0.8,-0.39999 1,0z" id="svg_6"/>
  </g>
  <g class="fire" id="svg_7">
   <path transform="translate(2) translate(-2) translate(-173, -6) translate(175, 26)" class="fire-5" fill-rule="evenodd" clip-rule="evenodd" fill="url(#fire-5_4_)" d="m61.5,143.2c6.2,20.8 2.7,34.5 -3.5,48.39999c-5.9,-12.79999 -8.9,-27.2 -4.1,-48.39999c0.9,-3.8 6.5,-3.39999 7.6,0z" id="svg_8"/>
   <path class="fire-4" fill-rule="evenodd" clip-rule="evenodd" fill="#F9A31A" d="m62.3,162.8c4.59999,12.5 1.39999,18.39999 -2.40001,26.8c-0.09999,0.09999 -0.2,0.2 -0.39999,0.2c-0.2,0 -0.39999,-0.10001 -0.39999,-0.2c-3.5,-7.90001 -5.5,-15.10001 -2.3,-26.7c0.8,-2.70001 4.7,-2.3 5.5,-0.10001z" id="svg_9"/>
   <path class="fire-3" fill-rule="evenodd" clip-rule="evenodd" fill="#FAD06D" d="m61.39999,162.5c2.60001,6 1.20001,10.2 -1.29999,14.39999c-0.10001,0.20001 -0.3,0.3 -0.60001,0.3c-0.3,0 -0.5,-0.09999 -0.60001,-0.3c-2.29999,-3.79999 -2.7,-9.29999 -0.79999,-14.39999c0.5,-1.39999 2.7,-1.2 3.29999,0z" id="svg_10"/>
   <path class="fire-2" fill-rule="evenodd" clip-rule="evenodd" fill="#FAE6B2" d="m60.8,162.5c1.3,3.60001 0.59999,6.10001 -0.60001,9.10001c-0.09999,0.09999 -0.2,0.2 -0.5,0.2c-0.2,0 -0.39999,-0.10001 -0.5,-0.2c-1.09999,-2.90001 -1.8,-5.60001 -0.59999,-9.20001c0.39999,-1.09999 1.79999,-0.79999 2.2,0.10001z" id="svg_11"/>
   <path class="fire-1" fill-rule="evenodd" clip-rule="evenodd" fill="#FFFFFF" d="m60.2,162.89999c0.60001,1.8 0.3,3.10001 -0.3,4.60001c0,0.09999 -0.09999,0.09999 -0.2,0.09999s-0.2,0 -0.2,-0.09999c-0.60001,-1.40001 -0.89999,-2.8 -0.3,-4.60001c0.10001,-0.59999 0.90001,-0.39999 1,0z" id="svg_12"/>
  </g>
  <g class="fire" id="svg_13">
   <path transform="translate(-2) translate(-1) translate(0, 1) translate(131, -54) translate(-129, 75)" class="fire-5" fill-rule="evenodd" clip-rule="evenodd" fill="url(#fire-5_5_)" d="m43.8,139.2c6.7,31.2 2.9,51.59999 -3.8,72.39999c-6.4,-19.2 -9.6,-40.7 -4.4,-72.39999c0.9,-5.7 7.1,-5.2 8.2,0z" id="svg_14"/>
   <path class="fire-4" fill-rule="evenodd" clip-rule="evenodd" fill="#F9A31A" d="m41.6,160.5c5,18.8 1.5,27.60001 -2.5,40.2c-0.1,0.2 -0.2,0.3 -0.4,0.3c-0.2,0 -0.39999,-0.10001 -0.39999,-0.3c-3.8,-11.8 -5.9,-22.5 -2.5,-40c0.6,-4.09999 4.89999,-3.5 5.8,-0.2z" id="svg_15"/>
   <path class="fire-3" fill-rule="evenodd" clip-rule="evenodd" fill="#FAD06D" d="m40.5,160.10001c2.8,8.89999 1.3,15.3 -1.4,21.5c-0.1,0.2 -0.4,0.39999 -0.6,0.39999c-0.3,0 -0.5,-0.09999 -0.6,-0.39999c-2.5,-5.60001 -2.9,-14 -0.9,-21.5c0.5,-2.10001 3,-1.8 3.5,0z" id="svg_16"/>
   <path class="fire-2" fill-rule="evenodd" clip-rule="evenodd" fill="#FAE6B2" d="m39.9,160.10001c1.4,5.39999 0.7,9.10001 -0.7,13.60001c-0.1,0.2 -0.3,0.39999 -0.5,0.39999c-0.2,0 -0.39999,-0.10001 -0.5,-0.39999c-1.2,-4.3 -1.89999,-8.40001 -0.6,-13.8c0.3,-1.60001 1.9,-1.20001 2.3,0.2z" id="svg_17"/>
   <path class="fire-1" fill-rule="evenodd" clip-rule="evenodd" fill="#FFFFFF" d="m39.3,160.7c0.7,2.7 0.3,4.60001 -0.3,6.89999c0,0.10001 -0.1,0.20001 -0.3,0.20001c-0.1,0 -0.2,-0.10001 -0.3,-0.20001c-0.6,-2.09999 -1,-4.29999 -0.3,-6.89999c0.2,-0.89999 1,-0.7 1.2,0z" id="svg_18"/>
  </g>
  <g id="svg_19">
   <path fill-rule="evenodd" clip-rule="evenodd" fill="#838587" d="m18.2,96.2c0.8,-1.30001 1.8,-2.40001 3,-3.30001l0,0c0.3,-0.19999 0.7,-0.29999 1.1,-0.29999c0.4,0 0.7,0.1 1.1,0.29999c1.1,0.80001 2.2,2 3,3.30001c0.7,1.19999 1.2,2.5 1.2,3.69999l0,52.30001c0,0.39999 -0.2,0.7 -0.4,1c-0.3,0.3 -0.6,0.39999 -1,0.39999l-7.6,0c-0.4,0 -0.7,-0.2 -1,-0.39999c-0.3,-0.3 -0.4,-0.60001 -0.4,-1l0,-52.3c-0.2,-1.2 0.3,-2.5 1,-3.7l0,0zm1.1,58.10001l5.8,0c0.3,0 0.6,0.10001 0.8,0.3c0.2,0.2 0.4,0.39999 0.5,0.7l1.2,3.39999l-10.8,0l1.2,-3.39999c0.1,-0.3 0.3,-0.5 0.5,-0.7c0.2,-0.20001 0.5,-0.3 0.8,-0.3z" id="svg_20"/>
   <path fill-rule="evenodd" clip-rule="evenodd" fill="#BCBEC0" d="m21.5,93.3c-2.1,1.5 -3.9,4.2 -3.9,6.5l0,52.3c0,0.5 0.4,0.89999 0.9,0.89999l7.5,0c0.5,0 0.9,-0.39999 0.9,-0.89999l0,-52.2c0,-2.3 -1.9,-5 -3.9,-6.5c-0.5,-0.4 -1.1,-0.4 -1.5,-0.1l0,0zm-2.2,61.5l5.8,0c0.4,0 0.7,0.2 0.8,0.60001l0.9,2.7l-9.4,0l0.9,-2.7c0.3,-0.40001 0.6,-0.60001 1,-0.60001z" id="svg_21"/>
   <path fill-rule="evenodd" clip-rule="evenodd" fill="#959799" d="m19.4,155.39999l1.7,0l-0.7,2.2l-1.9,0l0.6,-2c0.1,-0.09999 0.2,-0.2 0.3,-0.2l0,0zm-1.2,-55.49999l0,52.1c0,0.10001 0.1,0.3 0.3,0.3l2.3,0c0.1,0 0.3,-0.10001 0.3,-0.3l0,-52.1c0,-0.7 -0.6,-1.5 -1.2,-1.9c-0.1,-0.1 -0.3,-0.1 -0.4,0c-0.7,0.4 -1.3,1.2 -1.3,1.9z" id="svg_22"/>
   <path fill-rule="evenodd" clip-rule="evenodd" fill="#E5E6E7" d="m25,99.9l0,52.1c0,0.10001 0,0.3 0.1,0.3l0.8,0c0.1,0 0.1,-0.10001 0.1,-0.3l0,-52.1c0,-0.7 -0.2,-0.9 -0.4,-1.4c0,-0.1 -0.1,-0.1 -0.2,0c-0.2,0.4 -0.4,0.7 -0.4,1.4l0,0zm0.1,55.49999l-0.8,0l0.7,2.2l1,0l-0.6,-2c-0.1,-0.09999 -0.2,-0.2 -0.3,-0.2z" id="svg_23"/>
   <path fill-rule="evenodd" clip-rule="evenodd" fill="#838587" d="m26.9,110l-9.4,0l0,0.5l9.4,0l0,-0.5l0,0zm0,29.8l-9.4,0l0,0.5l9.4,0l0,-0.5l0,0zm0,-14.9l-9.4,0l0,0.5l9.4,0l0,-0.5z" id="svg_24"/>
  </g>
  <g id="svg_25">
   <path fill-rule="evenodd" clip-rule="evenodd" fill="#838587" d="m26.3,96.2c0.7,1.19999 1.2,2.5 1.2,3.69999l0,52.30001c0,0.39999 -0.2,0.7 -0.4,1c-0.3,0.3 -0.6,0.39999 -1,0.39999l-7.6,0c-0.4,0 -0.7,-0.2 -1,-0.39999c-0.3,-0.3 -0.4,-0.60001 -0.4,-1l0,-52.3c0,-1.2 0.5,-2.5 1.2,-3.7c0.8,-1.3 1.9,-2.5 3,-3.3c0.3,-0.2 0.7,-0.3 1.1,-0.3c0.4,0 0.7,0.1 1.1,0.3l0,0c0.9,0.9 2,2 2.8,3.3l0,0zm-0.3,58.3c0.2,0.2 0.4,0.39999 0.5,0.7l1.2,3.40001l-10.9,0l1.2,-3.40001c0.1,-0.3 0.3,-0.5 0.5,-0.7c0.2,-0.2 0.5,-0.3 0.8,-0.3l5.8,0c0.3,0.10001 0.6,0.2 0.9,0.3z" id="svg_26"/>
   <path fill-rule="evenodd" clip-rule="evenodd" fill="#BCBEC0" d="m23,93.3c-0.4,-0.3 -1,-0.3 -1.5,0c-2.1,1.5 -3.9,4.2 -3.9,6.5l0,52.3c0,0.5 0.4,0.89999 0.9,0.89999l7.5,0c0.5,0 0.9,-0.39999 0.9,-0.89999l0,-52.2c0,-2.3 -1.8,-5 -3.9,-6.6l0,0zm3,62.09999l0.9,2.7l-9.4,0l0.9,-2.7c0.1,-0.39999 0.4,-0.60001 0.8,-0.60001l5.8,0c0.5,0.00002 0.8,0.20001 1,0.60001z" id="svg_27"/>
   <path fill-rule="evenodd" clip-rule="evenodd" fill="#959799" d="m25.1,155.39999c0.1,0 0.2,0.10001 0.3,0.2l0.6,2l-2,0l-0.7,-2.2l1.8,0l0,0zm-0.1,-57.49999c-0.1,-0.1 -0.3,-0.1 -0.4,0c-0.6,0.5 -1.2,1.3 -1.2,1.9l0,52.2c0,0.10001 0.1,0.3 0.3,0.3l2.3,0c0.1,0 0.3,-0.10001 0.3,-0.3l0,-52.1c-0.1,-0.7 -0.7,-1.5 -1.3,-2z" id="svg_28"/>
   <path fill-rule="evenodd" clip-rule="evenodd" fill="#E5E6E7" d="m19.4,99.9c0,-0.7 -0.2,-0.9 -0.4,-1.4c0,-0.1 -0.1,-0.1 -0.2,0c-0.2,0.5 -0.4,0.7 -0.4,1.4l0,52.1c0,0.10001 0,0.3 0.1,0.3l0.8,0c0.1,0 0.1,-0.10001 0.1,-0.3l0,-52.1l0,0zm-0.3,55.7l-0.6,2l1,0l0.7,-2.2l-0.8,0c-0.2,-0.00002 -0.3,0.09999 -0.3,0.2z" id="svg_29"/>
   <path fill-rule="evenodd" clip-rule="evenodd" fill="#838587" d="m17.5,110l0,0.5l9.4,0l0,-0.5l-9.4,0l0,0zm0,29.8l0,0.5l9.4,0l0,-0.5l-9.4,0l0,0zm0,-14.4l9.4,0l0,-0.5l-9.4,0l0,0.5z" id="svg_30"/>
  </g>
  <g id="svg_31">
   <path fill-rule="evenodd" clip-rule="evenodd" fill="#838587" d="m53.3,96.2c0.8,-1.30001 1.8,-2.40001 3,-3.30001l0,0c0.3,-0.19999 0.7,-0.29999 1.1,-0.29999c0.4,0 0.7,0.1 1.1,0.29999c1.1,0.80001 2.2,2 3,3.30001c0.7,1.19999 1.2,2.5 1.2,3.69999l0,52.30001c0,0.39999 -0.2,0.7 -0.4,1c-0.3,0.3 -0.6,0.39999 -1,0.39999l-7.6,0c-0.4,0 -0.7,-0.2 -1,-0.39999c-0.3,-0.3 -0.4,-0.60001 -0.4,-1l0,-52.3c-0.2,-1.2 0.3,-2.5 1,-3.7l0,0zm1.1,58.10001l5.8,0c0.3,0 0.6,0.10001 0.8,0.3c0.2,0.2 0.4,0.39999 0.5,0.7l1.2,3.39999l-10.8,0l1.2,-3.39999c0.1,-0.3 0.3,-0.5 0.5,-0.7c0.2,-0.20001 0.5,-0.3 0.8,-0.3z" id="svg_32"/>
   <path fill-rule="evenodd" clip-rule="evenodd" fill="#BCBEC0" d="m56.6,93.3c-2.1,1.5 -3.9,4.2 -3.9,6.5l0,52.3c0,0.5 0.4,0.89999 0.9,0.89999l7.6,0c0.5,0 0.9,-0.39999 0.9,-0.89999l0,-52.2c0,-2.3 -1.9,-5 -3.9,-6.5c-0.6,-0.4 -1.1,-0.4 -1.6,-0.1l0,0zm-2.2,61.5l5.8,0c0.4,0 0.7,0.2 0.8,0.60001l0.9,2.7l-9.4,0l0.9,-2.7c0.3,-0.40001 0.6,-0.60001 1,-0.60001z" id="svg_33"/>
   <path fill-rule="evenodd" clip-rule="evenodd" fill="#959799" d="m54.5,155.39999l1.7,0l-0.7,2.2l-1.9,0l0.6,-2c0.1,-0.09999 0.2,-0.2 0.3,-0.2l0,0zm-1.1,-55.49999l0,52.1c0,0.10001 0.1,0.3 0.3,0.3l2.3,0c0.1,0 0.3,-0.10001 0.3,-0.3l0,-52.1c0,-0.7 -0.6,-1.5 -1.2,-1.9c-0.1,-0.1 -0.3,-0.1 -0.4,0c-0.8,0.4 -1.3,1.2 -1.3,1.9z" id="svg_34"/>
   <path fill-rule="evenodd" clip-rule="evenodd" fill="#E5E6E7" d="m60.1,99.9l0,52.1c0,0.10001 0,0.3 0.1,0.3l0.8,0c0.1,0 0.1,-0.10001 0.1,-0.3l0,-52.1c0,-0.7 -0.2,-0.9 -0.4,-1.4c0,-0.1 -0.1,-0.1 -0.20001,0c-0.19999,0.4 -0.39999,0.7 -0.39999,1.4l0,0zm0.1,55.49999l-0.8,0l0.7,2.2l1,0l-0.6,-2c-0.1,-0.09999 -0.2,-0.2 -0.3,-0.2z" id="svg_35"/>
   <path fill-rule="evenodd" clip-rule="evenodd" fill="#838587" d="m62,110l-9.4,0l0,0.5l9.4,0l0,-0.5l0,0zm0,29.8l-9.4,0l0,0.5l9.4,0l0,-0.5l0,0zm0,-14.9l-9.4,0l0,0.5l9.4,0l0,-0.5z" id="svg_36"/>
  </g>
  <g id="svg_37">
   <path fill-rule="evenodd" clip-rule="evenodd" fill="#DF5C3B" d="m31.5,83.1c1.6,-2.3 4,-4.4 6.4,-5.9c0.6,-0.39999 1.2,-0.5 1.9,-0.5c0.7,0 1.3,0.2 1.9,0.5c2.4,1.5 4.8,3.60001 6.4,5.9c1.5,2.1 2.5,4.4 2.5,6.6l0,59.90001c0,0.59999 -0.3,1.09999 -0.7,1.5c-0.4,0.39999 -1,0.59999 -1.7,0.59999l-16.8,0c-0.7,0 -1.2,-0.2 -1.7,-0.59999c-0.5,-0.40001 -0.7,-0.90001 -0.7,-1.5l0,-59.90001c-0.1,-2.1 0.9,-4.39999 2.5,-6.6z" id="svg_38"/>
   <path fill-rule="evenodd" clip-rule="evenodd" fill="#F27635" d="m38.2,77.7c-4.6,2.8 -8.7,7.8 -8.7,12l0,59.90001c0,0.89999 0.9,1.59999 1.9,1.59999l16.8,0c1,0 1.9,-0.7 1.9,-1.59999l0,-59.90001c0,-4.2 -4.1,-9.2 -8.7,-12c-1,-0.6 -2.3,-0.6 -3.2,0z" id="svg_39"/>
   <path fill-rule="evenodd" clip-rule="evenodd" fill="#F58C3D" d="m40.9,82.9c-2.6,1.6 -4.9,4.4 -4.9,6.8l0,58.60001c0,0.5 0.5,0.89999 1.1,0.89999l9.5,0c0.6,0 1.1,-0.39999 1.1,-0.89999l0,-58.60001c0,-2.40001 -2.3,-5.2 -4.9,-6.8c-0.6,-0.3 -1.3,-0.3 -1.9,0z" id="svg_40"/>
   <path fill-rule="evenodd" clip-rule="evenodd" fill="#FBC399" d="m42.9,89.7l0,57.3c0,0.39999 0.4,0.7 0.8,0.7l1.3,0c0.4,0 0.8,-0.3 0.8,-0.7l0,-57.3c0,-2.5 -2.9,-2.39999 -2.9,0z" id="svg_41"/>
   <path fill-rule="evenodd" clip-rule="evenodd" fill="#DF5C3B" d="m50.4,100.7l-21.3,0l0,0.5l21.3,0l0,-0.5l0,0zm0,29.8l-21.3,0l0,0.5l21.3,0l0,-0.5l0,0zm0,-14.9l-21.3,0l0,0.5l21.3,0l0,-0.5z" id="svg_42"/>
  </g>
  <g id="svg_43">
   <path fill-rule="evenodd" clip-rule="evenodd" fill="#373435" d="m65.1,144.7l-18.8,3.2l0.8,2.40001c0.4,1.2 -0.3,2.2 -1.5,2.2l-3.6,0l-0.6,0.8c-0.8,1 -2.4,1 -3.1,0l-0.6,-0.8l-3.7,0c-1.3,0 -1.9,-1 -1.5,-2.2l0.8,-2.40001l-18.8,-3.2c-0.5,-0.09999 -0.8,-0.5 -0.7,-1c0.2,-1.40001 0.3,-2.5 0.7,-3.59999c0.9,-2.20001 2.7,-3.3 4.6,-4.60001c5.8,-4.2 13.5,-9.7 13.5,-14.60001l0,-9.79999c0,-2 0.6,-4 1.5,-5.8c1.1,-2.10001 2.6,-4 4,-5.2c1,-0.9 2.5,-0.9 3.5,0c1.4,1.2 3,3.1 4,5.2c0.8,1.7 1.4,3.7 1.4,5.8l0,9.8c0,4.8 7.7,10.4 13.5,14.6c1.8,1.3 3.7,2.39999 4.6,4.60001c0.4,1.09999 0.6,2.29999 0.7,3.59999c0,0.5 -0.3,0.90001 -0.7,1z" id="svg_44"/>
   <path fill-rule="evenodd" clip-rule="evenodd" fill="#DBE7EE" d="m45.7,147.5l19.3,-3.3c0.2,0 0.4,-0.3 0.3,-0.5c-0.3,-2.7 -0.5,-4.59999 -3,-6.39999c-5.9,-4.3 -15.8,-10.7 -15.8,-16.5l0,-9.8c0,-4.4 -2.8,-8.4 -5.3,-10.6c-0.8,-0.7 -2.1,-0.7 -2.9,0c-2.5,2.2 -5.3,6.2 -5.3,10.6l0,9.8c0,5.7 -9.9,12.09999 -15.8,16.5c-2.4,1.8 -2.7,3.7 -3,6.39999c0,0.2 0.1,0.40001 0.3,0.5l19.3,3.3l-0.9,2.89999c-0.3,0.90001 0.2,1.60001 1.09999,1.60001l3.80001,0l0.69999,1c0.30001,0.39999 0.7,0.60001 1.2,0.60001c0.5,0 0.90001,-0.20001 1.20001,-0.60001l0.7,-1l3.8,0c0.9,0 1.4,-0.7 1.09999,-1.60001l-0.79999,-2.89999z" id="svg_45"/>
   <path fill-rule="evenodd" clip-rule="evenodd" fill="#EBF3F6" d="m39.8,153.5c0.5,0 0.9,-0.2 1.2,-0.60001l0.7,-1l3.8,0c1,0 1.4,-0.7 1,-1.79999l-0.1,-0.40001l-0.7,-2.3l0.7,-0.09999l0.1,0c0,-8.8 0,-17.60001 0,-26.5l0,-9.4c0,-2.5 -0.5,-4.4 -1.7,-6.6c-0.7,-1.2 -1.5,-2.4 -2.4,-3.3c-0.4,-0.4 -0.8,-0.79999 -1.2,-1.2c-0.4,-0.4 -0.9,-0.5 -1.4,-0.5c0,18 0,35.8 0,53.7z" id="svg_46"/>
   <polygon fill-rule="evenodd" clip-rule="evenodd" fill="#FDFDFD" points="44.70000076293945,150.60000610351562 42.20000076293945,150.60000610351562 42.20000076293945,108.4000015258789 43.5,108.9000015258789 42.20000076293945,107.5999984741211 42.20000076293945,102.80000305175781 43.70000076293945,104.9000015258789 43.70000076293945,148.1999969482422 " id="svg_47"/>
   <path fill-rule="evenodd" clip-rule="evenodd" fill="#C4CDD2" d="m41.7,147.39999l0,4.5l0.4,0l0,-1.10001l4.6,0l-0.1,-0.39999l-4.6,0l0,-1.10001l4.2,0l-0.1,-0.39999l-4.1,0l0,-1.2l3.7,0l-0.1,-0.40001l-3.9,0l0,0.10001zm5,-28.39999l0,0.4l-6.7,0l0,9.49999l6.7,0l0,0.40001l-6.7,0l0,9.5l6.7,0l0,0.39999l-6.7,0l0,14.40001l-0.4,0l0,-14.40001l-6.9,0l0,-0.39999l6.9,0l0,-9.5l-6.9,0l0,-0.40001l6.9,0l0,-9.49999l-6.9,0l0,-0.4l6.9,0l0,-18l0.4,0l0,18l6.7,0l0,0zm-8.9,28.39999l-3.9,0l-0.1,0.39999l3.7,0l0,1.20001l-4.1,0l-0.1,0.39999l4.2,0l0,1.10001l-4.6,0l-0.1,0.39999l4.6,0l0,1.10001l0.4,0l0,-4.60001z" id="svg_48"/>
   <path fill-rule="evenodd" clip-rule="evenodd" fill="#373435" d="m44,103c-0.2,-0.3 -1.4,-1.5 -1.6,-1.8c-1.7,-2.1 -3.4,-2.1 -5.1,0c-0.3,0.3 -1.3,1.5 -1.6,1.8c2.5,-1.7 5.6,-1.9 8.3,0l0,0zm-17.9,43.39999l0,-3.2l-6.6,0l0,2.10001l-0.4,0l0,-2.10001l-5,0l0,-0.7l5,0l0.4,0l6.6,0l0.4,0l6.2,0l0,-32.5l0.3,0l0,37.5l-0.4,0l0,-4.39999l-6.2,0l0,3.2l-0.3,0l0,0.09999zm27.3,0l0,-3.2l6.6,0l0,2.10001l0.4,0l0,-2.10001l5,0l0,-0.7l-5,0l-0.4,0l-6.6,0l-0.4,0l-6.2,0l0,-32.5l-0.4,0l0,37.5l0.4,0l0,-4.39999l6.2,0l0,3.2l0.4,0l0,0.09999zm-16.8,-37.7c2.1,-1 4.2,-1 6.3,0c0.3,0.09999 0.6,0.3 0.9,0.5c-0.3,-0.30001 -0.6,-0.6 -0.9,-0.90001c-2.1,-2.09999 -4.2,-2.09999 -6.3,0c-0.3,0.30001 -0.6,0.6 -0.9,0.90001c0.4,-0.2 0.7,-0.39999 0.9,-0.5z" id="svg_49"/>
  </g>
  <text transform="rotate(-90, 39.2502, 127) matrix(0.4795, 0, 0, 0.515169, -32.3643, -10.7665)" xml:space="preserve" text-anchor="middle" font-family="serif" font-size="24" id="svg_50" y="275.4583" x="149.35242" stroke-width="0" stroke="#000000" fill="#000000">Classico</text>
 </g>
</svg>